<svg xmlns="http://www.w3.org/2000/svg" width="16" height="16" viewBox="0 0 16 16">
  <path fill="#1e73be" d="M15 12.3c-1.3 0-1.9-.6-2.5-1.2-.5-.5-1-1-2-1s-1.5.5-2 1c-.6.6-1.2 1.2-2.5 1.2s-1.9-.6-2.5-1.2c-.5-.5-1-1-2-1s-1.5.5-2 1l-1-1c.6-.6 1.2-1.2 2.5-1.2s1.9.6 2.5 1.2c.5.5 1 1 2 1s1.5-.5 2-1c.6-.6 1.2-1.2 2.5-1.2s1.9.6 2.5 1.2c.5.5 1 1 2 1v1.5zm0-4c-1.3 0-1.9-.6-2.5-1.2-.5-.5-1-1-2-1s-1.5.5-2 1c-.6.6-1.2 1.2-2.5 1.2s-1.9-.6-2.5-1.2c-.5-.5-1-1-2-1s-1.5.5-2 1l-1-1c.6-.6 1.2-1.2 2.5-1.2s1.9.6 2.5 1.2c.5.5 1 1 2 1s1.5-.5 2-1c.6-.6 1.2-1.2 2.5-1.2s1.9.6 2.5 1.2c.5.5 1 1 2 1v1.5zM5.5 4C4.7 4 4 3.3 4 2.5S4.7 1 5.5 1 7 1.7 7 2.5 6.3 4 5.5 4z"/>
</svg>
